<svg xmlns="http://www.w3.org/2000/svg" width="1600" height="1050" viewBox="0 0 1600 1050" role="img" aria-label="QuantTerminal 新版股票分析控制台 UI 预览图">
  <defs>
    <pattern id="dots" width="16" height="16" patternUnits="userSpaceOnUse">
      <circle cx="2" cy="2" r="1.2" fill="#3b414d"/>
    </pattern>
    <linearGradient id="screen" x1="0" y1="0" x2="0" y2="1">
      <stop offset="0" stop-color="#171c25"/>
      <stop offset="1" stop-color="#0d121a"/>
    </linearGradient>
    <linearGradient id="blueArea" x1="0" y1="0" x2="0" y2="1">
      <stop offset="0" stop-color="#91b7ff" stop-opacity=".34"/>
      <stop offset="1" stop-color="#91b7ff" stop-opacity="0"/>
    </linearGradient>
    <filter id="shadow" x="-20%" y="-20%" width="140%" height="140%">
      <feDropShadow dx="0" dy="24" stdDeviation="28" flood-color="#000000" flood-opacity=".45"/>
    </filter>
    <style>
      .bg { fill:#11161e; }
      .dot-bg { fill:url(#dots); opacity:.9; }
      .frame { fill:url(#screen); stroke:#7667ff; stroke-width:3; filter:url(#shadow); }
      .panel { fill:#171c25; stroke:#2d3543; stroke-width:1.5; }
      .panel2 { fill:#1b202b; stroke:#303948; stroke-width:1.5; }
      .line { stroke:#2d3543; stroke-width:1; }
      .text { fill:#f1f6ff; font-family:Inter, Arial, sans-serif; font-weight:800; }
      .muted { fill:#8d9aae; font-family:Inter, Arial, sans-serif; font-weight:700; }
      .tiny { font-size:13px; }
      .small { font-size:16px; }
      .mid { font-size:22px; }
      .big { font-size:34px; }
      .blue { fill:#91b7ff; }
      .green { fill:#31d786; }
      .red { fill:#ff7479; }
      .orange { fill:#ffb071; }
      .stroke-blue { stroke:#a9c7ff; }
      .stroke-muted { stroke:#485368; }
    </style>
  </defs>

  <rect class="bg" width="1600" height="1050"/>
  <rect class="dot-bg" width="1600" height="1050"/>

  <text x="56" y="60" class="text mid">QuantTerminal 新版 UI 总览</text>
  <text x="56" y="88" class="muted small">Institutional dark terminal · dense metrics · thin border cards · stock-analysis redesign preview</text>
  <g transform="translate(1188 42)">
    <rect width="356" height="48" rx="6" class="panel"/>
    <text x="18" y="30" class="muted tiny">Beijing 14:30:05</text>
    <text x="162" y="30" class="green tiny">上证 +0.15%</text>
    <text x="258" y="30" class="blue tiny">Real-time</text>
  </g>

  <g transform="translate(56 122)">
    <rect width="1488" height="860" rx="10" class="frame"/>
    <rect width="232" height="860" rx="8" fill="#171c25"/>
    <line x1="232" y1="0" x2="232" y2="860" class="line"/>
    <text x="28" y="42" class="text small blue">QuantTerminal</text>
    <text x="28" y="64" class="muted tiny">Institutional Pro</text>
    <g class="text tiny">
      <text x="64" y="130">首页</text>
      <text x="64" y="184">选股中心</text>
      <text x="64" y="238">跟踪复盘</text>
      <text x="64" y="292">回测中心</text>
      <text x="64" y="346">策略管理</text>
      <text x="64" y="400">数据状态</text>
      <text x="64" y="454">个股详情</text>
    </g>
    <g fill="none" stroke="#91b7ff" stroke-width="2">
      <rect x="30" y="116" width="18" height="18" rx="3"/>
      <rect x="30" y="170" width="18" height="18" rx="3"/>
      <rect x="30" y="224" width="18" height="18" rx="3"/>
      <rect x="30" y="278" width="18" height="18" rx="3"/>
      <rect x="30" y="332" width="18" height="18" rx="3"/>
      <rect x="30" y="386" width="18" height="18" rx="3"/>
      <rect x="30" y="440" width="18" height="18" rx="3"/>
    </g>
    <rect x="10" y="210" width="212" height="48" fill="#435269"/>
    <circle cx="44" cy="812" r="17" fill="#263446" stroke="#56657a"/>
    <text x="72" y="809" class="text tiny">Alpha Quant</text>
    <text x="72" y="829" class="muted tiny">VIP MEMBER</text>

    <g transform="translate(232 0)">
      <rect width="1256" height="60" fill="#0d121a"/>
      <line x1="0" y1="60" x2="1256" y2="60" class="line"/>
      <text x="22" y="38" class="text small">Market Terminal</text>
      <text x="220" y="38" class="red tiny">上证 3021.5 -0.42%</text>
      <text x="384" y="38" class="green tiny">深证 9234.1 +0.15%</text>
      <text x="556" y="38" class="green tiny">创业 1782.3 +0.82%</text>
      <text x="1050" y="38" class="muted tiny">Refresh · Alert · Settings</text>

      <g transform="translate(22 84)">
        <g>
          <rect width="240" height="92" class="panel"/>
          <text x="18" y="28" class="muted tiny">TOTAL TRACKED / 跟踪总量</text>
          <text x="18" y="66" class="text big">2,482</text>
          <text x="122" y="66" class="blue tiny">+12 Today</text>
        </g>
        <g transform="translate(260 0)">
          <rect width="240" height="92" class="panel"/>
          <text x="18" y="28" class="muted tiny">AVG RETURN / 平均收益</text>
          <text x="18" y="66" class="text big blue">18.4%</text>
          <rect x="140" y="50" width="70" height="8" fill="#3a4454"/>
          <rect x="140" y="50" width="54" height="8" fill="#a9c7ff"/>
        </g>
        <g transform="translate(520 0)">
          <rect width="240" height="92" class="panel"/>
          <text x="18" y="28" class="muted tiny">WIN RATE / 胜率</text>
          <text x="18" y="66" class="text big blue">64.2%</text>
          <text x="124" y="66" class="muted tiny">Target 60%</text>
        </g>
        <g transform="translate(780 0)">
          <rect width="240" height="92" class="panel"/>
          <text x="18" y="28" class="muted tiny">MAX DD / 最大回撤</text>
          <text x="18" y="66" class="text big red">-5.24%</text>
          <text x="132" y="66" class="muted tiny">03/12 Peak</text>
        </g>
      </g>

      <g transform="translate(22 196)">
        <rect width="700" height="306" class="panel"/>
        <text x="18" y="34" class="text small">Equity Curve / 累计净值曲线</text>
        <g transform="translate(28 66)" opacity=".9">
          <path d="M0 0H640M0 48H640M0 96H640M0 144H640M0 192H640" class="stroke-muted" stroke-width="1"/>
          <path d="M0 0V210M80 0V210M160 0V210M240 0V210M320 0V210M400 0V210M480 0V210M560 0V210M640 0V210" class="stroke-muted" stroke-width="1"/>
          <path d="M0,158 L70,166 L140,132 L210,146 L280,108 L350,122 L420,82 L490,94 L560,58 L640,42 L640,210 L0,210 Z" fill="url(#blueArea)"/>
          <polyline points="0,158 70,166 140,132 210,146 280,108 350,122 420,82 490,94 560,58 640,42" fill="none" class="stroke-blue" stroke-width="3"/>
        </g>
      </g>

      <g transform="translate(744 196)">
        <rect width="488" height="306" class="panel"/>
        <text x="18" y="34" class="text small">Return Distribution / 收益分布</text>
        <g transform="translate(52 76)">
          <rect x="0" y="150" width="36" height="52" fill="#72151f"/>
          <rect x="50" y="110" width="36" height="92" fill="#8d1420"/>
          <rect x="100" y="74" width="36" height="128" fill="#9d1c2a"/>
          <rect x="150" y="126" width="36" height="76" fill="#4a5365"/>
          <rect x="200" y="84" width="36" height="118" fill="#6f7f9f"/>
          <rect x="250" y="24" width="36" height="178" fill="#91a8d7"/>
          <rect x="300" y="96" width="36" height="106" fill="#89a1d0"/>
          <rect x="350" y="126" width="36" height="76" fill="#59657b"/>
        </g>
      </g>

      <g transform="translate(22 522)">
        <rect width="1210" height="230" class="panel"/>
        <line x1="0" y1="58" x2="1210" y2="58" class="line"/>
        <text x="18" y="36" class="text small">Tracked Universe / 跟踪列表</text>
        <rect x="926" y="16" width="190" height="28" fill="#111722" stroke="#3a4454"/>
        <text x="946" y="35" class="muted tiny">Search Symbol...</text>
        <rect x="1130" y="16" width="64" height="28" fill="#111722" stroke="#3a4454"/>
        <text x="1146" y="35" class="text tiny">Filter</text>
        <g class="muted tiny">
          <text x="18" y="90">STOCK / 代码名称</text><text x="230" y="90">ENTRY / 入场价</text><text x="410" y="90">CURRENT / 现价</text><text x="580" y="90">DAYS</text><text x="710" y="90">RETURN</text><text x="900" y="90">STATUS</text>
        </g>
        <g class="text tiny">
          <text x="18" y="126">600519.SH  贵州茅台</text><text x="230" y="126">1,642.50</text><text x="410" y="126">1,712.20</text><text x="580" y="126">12d</text><text x="710" y="126" class="blue">+4.24%</text><text x="900" y="126" class="blue">TRACKING</text>
          <text x="18" y="162">300750.SZ  宁德时代</text><text x="230" y="162">185.30</text><text x="410" y="162" class="red">168.45</text><text x="580" y="162">45d</text><text x="710" y="162" class="red">-9.09%</text><text x="900" y="162" class="red">EXITED</text>
          <text x="18" y="198">000858.SZ  五粮液</text><text x="230" y="198">152.10</text><text x="410" y="198">164.88</text><text x="580" y="198">8d</text><text x="710" y="198" class="blue">+8.40%</text><text x="900" y="198" class="blue">TRACKING</text>
        </g>
        <line x1="0" y1="104" x2="1210" y2="104" class="line"/>
        <line x1="0" y1="140" x2="1210" y2="140" class="line"/>
        <line x1="0" y1="176" x2="1210" y2="176" class="line"/>
      </g>

      <g transform="translate(22 772)">
        <g>
          <rect width="290" height="62" class="panel2"/>
          <text x="16" y="24" class="muted tiny">BACKTEST TASK / 回测任务</text>
          <text x="16" y="48" class="green small">99%</text>
          <rect x="76" y="38" width="184" height="7" fill="#303948"/>
          <rect x="76" y="38" width="178" height="7" fill="#a9c7ff"/>
        </g>
        <g transform="translate(306 0)">
          <rect width="290" height="62" class="panel2"/>
          <text x="16" y="24" class="muted tiny">STRATEGY RISK / 策略风险</text>
          <text x="16" y="48" class="orange small">58.2%</text>
          <rect x="106" y="38" width="138" height="7" fill="#303948"/>
          <rect x="106" y="38" width="82" height="7" fill="#ffb071"/>
        </g>
        <g transform="translate(612 0)">
          <rect width="290" height="62" class="panel2"/>
          <text x="16" y="24" class="muted tiny">DATA HEALTH / 数据健康度</text>
          <text x="16" y="48" class="blue small">99.8%</text>
          <text x="112" y="48" class="green tiny">OPTIMAL</text>
        </g>
        <g transform="translate(918 0)">
          <rect width="290" height="62" class="panel2"/>
          <text x="16" y="24" class="muted tiny">STOCK DETAIL / 个股详情</text>
          <text x="16" y="48" class="red small">1,682.45</text>
          <text x="112" y="48" class="red tiny">+0.74%</text>
        </g>
      </g>
    </g>
  </g>
</svg>
